{"title":"Private Video Deluxe # 14 - Splendor Of Hell DVD","uid":6926955,"size":1113782250,"categoryP":"porn","categoryS":"movies","magnet":"?xt=urn:btih:5c9b76348ff1e0c17644a4f39d49bc1ef8873504&amp;dn=Private+Video+Deluxe+%23+14+-+Splendor+Of+Hell+DVD&amp;tr=udp%3A%2F%2Ftracker.openbittorrent.com%3A80&amp;tr=udp%3A%2F%2Fopen.demonii.com%3A1337&amp;tr=udp%3A%2F%2Ftracker.coppersurfer.tk%3A6969&amp;tr=udp%3A%2F%2Fexodus.desync.com%3A6969","seeders":0,"leechers":1,"uploader":"tigris1968","files":67,"time":1325541730,"description":"Private Video Deluxe # 14 - Splendor Of Hell DVD\n &lt;a href=&quot;\nhttp://bayimg.com/lalPOaADK&quot; rel=&quot;nofollow&quot; target=&quot;_NEW&quot;&gt;\nhttp://bayimg.com/lalPOaADK&lt;/a&gt;\n &lt;a href=&quot;\nhttp://bayimg.com/laLppAadK&quot; rel=&quot;nofollow&quot; target=&quot;_NEW&quot;&gt;\nhttp://bayimg.com/laLppAadK&lt;/a&gt;\n &lt;a href=&quot;\nhttp://bayimg.com/mAlPaaadk&quot; rel=&quot;nofollow&quot; target=&quot;_NEW&quot;&gt;\nhttp://bayimg.com/mAlPaaadk&lt;/a&gt;\n\nGeneral\nComplete name                    : C:\\Downloads\\Private Video Deluxe # 14 - Splendor Of Hell DVD\\DVD\\Splendor Of Hell DVD.avi\nFormat                           : AVI\nFormat/Info                      : Audio Video Interleave\nFormat profile                   : OpenDML\nFile size                        : 1.02 GiB\nDuration                         : 1h 48mn\nOverall bit rate                 : 1 343 Kbps\nWriting application              : MEncoder SVN-r30881(20100311-gcc4.3.3)\nWriting library                  : MPlayer\n\nVideo\nID                               : 0\nFormat                           : MPEG-4 Visual\nFormat profile                   : Advanced Simple@L5\nFormat settings, BVOP            : 2\nFormat settings, QPel            : No\nFormat settings, GMC             : No warppoints\nFormat settings, Matrix          : Default (H.263)\nCodec ID                         : XVID\nCodec ID/Hint                    : XviD\nDuration                         : 1h 48mn\nBit rate                         : 60.1 Kbps\nWidth                            : 720 pixels\nHeight                           : 480 pixels\nDisplay aspect ratio             : 3:2\nFrame rate                       : 25.000 fps\nStandard                         : NTSC\nColor space                      : YUV\nChroma subsampling               : 4:2:0\nBit depth                        : 8 bits\nScan type                        : Progressive\nCompression mode                 : Lossy\nBits/(Pixel*Frame)               : 0.007\nStream size                      : 46.8 MiB (4%)\nWriting library                  : XviD 1.2.1 (UTC 2008-12-04)\n\nAudio\nID                               : 1\nFormat                           : MPEG Audio\nCodec ID                         : 55\nCodec ID/Hint                    : MP3\nDuration                         : 1h 48mn\nBit rate                         : 128 Kbps\nChannel(s)                       : 2 channels\nSampling rate                    : 44.1 KHz\nCompression mode                 : Lossy\nStream size                      : 99.6 MiB (10%)\nAlignment                        : Aligned on interleaves","torrent":{"xt":"urn:btih:5c9b76348ff1e0c17644a4f39d49bc1ef8873504","amp;dn":"Private+Video+Deluxe+%23+14+-+Splendor+Of+Hell+DVD","amp;tr":["udp%3A%2F%2Ftracker.openbittorrent.com%3A80","udp%3A%2F%2Fopen.demonii.com%3A1337","udp%3A%2F%2Ftracker.coppersurfer.tk%3A6969","udp%3A%2F%2Fexodus.desync.com%3A6969"],"infoHash":"5c9b76348ff1e0c17644a4f39d49bc1ef8873504","infoHashBuffer":{"type":"Buffer","data":[92,155,118,52,143,241,224,193,118,68,164,243,157,73,188,30,248,135,53,4]},"announce":[],"urlList":[]}}